<svg width="346" height="307" viewBox="0 0 346 307" fill="none" xmlns="http://www.w3.org/2000/svg">
<rect width="346" height="307" rx="50" fill="white"/>
<path fill-rule="evenodd" clip-rule="evenodd" d="M188.418 33.8487C190.809 33.2877 193.26 33.0404 195.716 33.02C205.822 32.936 215.926 33.1168 226.024 33.5624C234.651 34.6795 241.893 38.0958 247.748 43.811C250.449 46.4477 252.576 49.8086 252.864 53.5724C253.155 57.3743 251.962 60.748 249.286 63.6936C247.341 65.8344 244.697 67.1764 241.983 68.1788C228.082 73.315 213.929 74.177 199.524 70.7648C196.527 70.0549 193.617 68.7489 191.541 66.4739C189.411 64.1396 188.763 62.0613 189.596 60.2388C192.154 54.6444 200.36 58.4348 205.74 61.4179V61.4179C207.166 62.2089 208.85 62.6602 210.476 62.7872C215.105 63.1488 219.735 63.1541 224.364 62.8033C226.137 62.6689 227.912 62.3993 229.566 61.7469C231.443 61.0069 233.16 60.0016 234.717 58.731C235.972 57.7064 236.901 56.2622 237.006 54.6451V54.6451C237.159 52.2825 235.496 50.2881 233.428 49.1354C226.253 45.1361 218.452 43.9452 210.024 45.5624C201.346 46.1818 193.013 48.1818 185.024 51.5624C176.73 55.7099 168.409 59.8698 160.065 64.042C158.042 65.0538 155.94 65.9095 153.755 66.4961C145.839 68.6216 137.762 69.8103 129.524 70.0624C121.837 69.6749 114.963 67.442 108.902 63.3638C105.117 60.8172 102.022 57.0925 101.141 52.6167C99.7401 45.4998 103.701 40.815 113.024 38.5624C121.736 36.2714 130.207 36.7213 138.438 39.9121C139.5 40.3238 140.773 41.0156 141.439 41.9396V41.9396C143.602 44.938 137.979 46.3185 134.3 45.9596C130.735 45.6118 127.143 45.3128 123.524 45.0624C123.152 45.0276 122.783 45.0024 122.416 44.9869C114.601 44.6548 107.703 54.809 115.024 57.5624V57.5624C119.74 58.7803 124.51 59.239 129.334 58.9387C131.798 58.7853 134.201 58.164 136.541 57.38C138.082 56.8636 139.633 56.3465 141.194 55.8286C143.74 54.9837 146.198 53.8918 148.527 52.5608C155.779 48.4169 163.031 44.273 170.283 40.1292C172.108 39.0863 174.008 38.1766 175.991 37.4816C180.123 36.0341 184.265 34.8231 188.418 33.8487Z" fill="#3C564B"/>
<path fill-rule="evenodd" clip-rule="evenodd" d="M86.2929 83.8986C89.3987 84.735 92.2412 86.3305 95.409 86.8885V86.8885C97.0735 87.1817 98.863 87.2129 100.529 87.4953C112.262 89.4834 124.067 90.9314 135.943 91.8391C137.994 91.9958 140.028 92.31 142.05 92.685C146.897 93.5839 151.888 94.0431 157.024 94.0624C172.024 94.0624 187.024 94.0624 202.024 94.0624C209.207 93.7946 216.207 93.1279 223.024 92.0624C243.061 91.3045 262.728 88.1378 282.024 82.5624C288.38 81.1122 294.433 78.9449 300.182 76.0606C302.09 75.1035 303.839 73.8519 305.322 72.3168C306.368 71.2344 307.361 70.1184 308.3 68.9689C308.784 68.3765 309.12 67.6789 309.306 66.9366V66.9366C310.175 63.4601 314.172 61.6818 316.93 63.9693C324.533 70.2743 323.565 76.9983 314.027 84.1413C312.724 85.1172 311.269 85.8821 309.761 86.4948C290.233 94.4274 269.987 99.7832 249.024 102.562C237.39 103.915 225.723 104.749 214.024 105.062C191.025 106.346 168.025 106.346 145.024 105.062C117.39 104.235 90.3906 99.7346 64.0243 91.5624C57.6628 89.6891 51.8527 86.8762 46.594 83.1236C43.0902 80.6233 39.8638 77.2672 39.2901 73.0012C38.6466 68.2167 41.2247 64.4038 47.0243 61.5624C49.4556 60.2815 51.9239 59.0842 54.4294 57.9705C55.7578 57.38 58.0723 57.1312 57.8525 58.5682V58.5682C57.6655 59.791 56.3028 60.7128 56.1021 61.9334C55.3279 66.6419 56.9686 70.5182 61.0243 73.5624C69.0248 78.0711 77.4477 81.5165 86.2929 83.8986Z" fill="#3C564B"/>
<path fill-rule="evenodd" clip-rule="evenodd" d="M319.578 101.521C320.432 100.697 321.845 100.574 321.997 101.752V101.752C322.021 101.931 322.008 102.153 321.977 102.33C314.298 145.474 296.662 183.711 269.067 217.038C267.392 219.062 265.854 221.205 264.669 223.55C262.204 228.424 260.191 233.462 258.628 238.662C256.985 244.13 254.959 249.621 250.924 253.66C244.88 259.71 237.58 264.011 229.024 266.562C207.779 272.683 186.112 274.683 164.024 272.562C148.821 271.513 134.488 267.513 121.024 260.562C118.716 259.118 116.576 257.483 114.603 255.658C110.932 252.264 108.878 247.575 107.278 242.838C105.189 236.657 102.714 230.623 99.8545 224.736C98.986 222.948 97.9442 221.25 96.7888 219.633C87.8091 207.061 78.8293 194.489 69.8495 181.918C68.9687 180.684 68.2263 179.353 67.6197 177.964V177.964C62.1785 165.508 45.0687 163.992 43.7763 177.523C43.3961 181.503 43.6455 185.683 44.5244 190.062C48.4215 209.207 59.4801 222.331 77.7001 229.437C77.9144 229.52 78.1398 229.585 78.3655 229.629V229.629C82.0897 230.361 82.1733 235.05 78.4874 235.956C76.1804 236.522 73.8591 237.027 71.5236 237.469C71.1915 237.532 70.8519 237.567 70.5139 237.571C53.5536 237.792 40.1722 231.181 30.3697 217.738C29.0952 215.991 28.0612 214.073 27.2728 212.059C19.3564 191.833 22.4403 173.168 36.5244 156.062C39.2356 153.165 42.0184 150.399 44.873 147.764C49.0357 143.923 50.6626 138.007 49.0022 132.591C48.1585 129.84 47.3863 127.074 46.6853 124.294C44.5631 115.877 54.8459 109.652 63.0244 112.562V112.562C100.56 122.944 138.893 127.777 178.024 127.062C221.677 128.746 264.343 123.246 306.024 110.562C311.147 108.308 315.665 105.294 319.578 101.521Z" fill="#3C564B"/>
</svg>
